<?xml version="1.0" encoding="UTF-8" standalone="no"?>
<!-- Created with Inkscape (http://www.inkscape.org/) -->

<svg
   version="1.1"
   id="svg1"
   width="767.80353"
   height="309.03705"
   viewBox="0 0 767.80353 309.03705"
   xmlns="http://www.w3.org/2000/svg"
   xmlns:svg="http://www.w3.org/2000/svg">
  <defs
     id="defs1" />
  <g
     id="g1"
     transform="translate(-10.922979,-5.9051208)">
    <g
       id="g8"
       transform="translate(-1.657432,50.94538)">
      <path
         id="path176"
         style="fill:#47b2e4;stroke:#606060;stroke-opacity:1"
         d="m 109.19727,12.416016 c -1.26847,-0.01791 -2.53745,-0.014 -3.80469,0.01367 -12.165536,0.265638 -24.232222,2.635812 -35.386721,7.185546 -33.69004,13.741608 -56.966471,46.098099 -59.839843,83.185548 -1.3735758,17.72913 3.992881,42.12347 12.113281,55.06055 l 2.236328,3.55859 16.355469,2.62696 c 8.99653,1.44391 24.457442,3.84518 34.357422,5.33593 9.89998,1.49076 18.225638,3.32094 18.810546,3.42383 6.342848,1.11573 13.095318,0.84306 22.825068,0.9919 0.55288,0.008 19.92642,-2.42202 39.5929,-5.88448 19.66648,-3.46244 36.15611,-6.54189 36.64453,-6.84375 0.48842,-0.30186 2.6022,-4.207 4.69727,-8.67773 15.06267,-32.14294 11.7348,-70.579947 -8.58008,-99.091801 C 183.64433,45.477093 170.79054,33.07978 163.28516,28.287109 147.28533,18.070197 128.22429,12.684618 109.19727,12.416016 Z m -1.14844,48.992187 c 2.29845,-0.02913 4.61311,0.137636 6.92383,0.509766 21.45582,3.455361 36.75586,21.259129 36.75586,42.771481 0,12.76822 -4.23481,22.42076 -13.72071,31.26758 -6.06076,5.65245 -11.20074,8.37823 -19.49609,10.33399 -7.9941,1.88471 -12.67196,1.81546 -20.783204,-0.30469 -7.880861,-2.05993 -14.692603,-6.09648 -20.117188,-11.83985 -3.254751,-3.44601 -6.010384,-7.50665 -8.197266,-12.12304 -0.744866,-1.57238 -1.315599,-2.82222 -1.753906,-3.97461 -0.876614,-2.30479 -1.221767,-4.21652 -1.353515,-7.52149 -0.06587,-1.65248 -0.07813,-3.65401 -0.07813,-6.22656 0,-2.55834 0.01284,-4.55328 0.07813,-6.201171 0.130574,-3.295782 0.469361,-5.203935 1.320312,-7.453125 0.425476,-1.124595 0.978841,-2.333957 1.699219,-3.845703 7.353067,-15.430753 22.633516,-25.188698 38.722658,-25.392578 z"
         transform="translate(15.657432,-56.94538)" />
      <path
         id="path175"
         style="fill:#232736;fill-opacity:1"
         d="m 684.78739,113.84172 c -5.91744,0.004 -11.81601,3.13799 -14.91601,9.39649 -3.26355,6.58866 -4.07137,21.39226 -1.62696,29.80078 1.71516,5.89991 5.56773,11.33718 9.02149,12.73437 1.14486,0.46315 4.72781,0.87135 7.96289,0.90625 7.54129,0.0813 11.65431,-2.34416 14.79687,-8.72461 2.05363,-4.16953 2.32032,-6.15635 2.32032,-17.24023 0,-11.41885 -0.22185,-12.96653 -2.5254,-17.5 -3.17768,-6.25381 -9.11576,-9.37748 -15.0332,-9.37305 z m -0.0703,7.5 c 2.61708,-0.10204 5.26907,1.49073 6.62109,4.72656 3.48773,8.34731 3.04011,24.09702 -0.84961,29.88867 -2.31924,3.45327 -5.82704,4.55695 -8.81054,2.77344 -3.47118,-2.07503 -5.09372,-9.16601 -4.61719,-20.18554 0.24506,-5.66696 1.0225,-11.49152 1.72656,-12.94336 1.33903,-2.76124 3.6205,-4.16974 5.92969,-4.25977 z" />
      <path
         style="fill:#232736;fill-opacity:1"
         d="m 650.88206,164.80776 c -0.56935,-1.06385 -1.03519,-3.34343 -1.03519,-5.06575 0,-4.72861 1.62242,-7 5,-7 3.37758,0 5,2.27139 5,7 0,4.72862 -1.62242,7 -5,7 -1.87298,0 -3.30299,-0.69763 -3.96481,-1.93425 z"
         id="path144" />
      <path
         style="fill:#232736;fill-opacity:1"
         d="m 712.84687,140.68452 v -26.0575 l 4.25,0.3075 c 3.80293,0.27515 4.28329,0.59678 4.56643,3.05749 0.42087,3.65778 1.88508,3.46672 5.74744,-0.75 1.76323,-1.925 4.15768,-3.5 5.321,-3.5 1.87149,0 2.11513,0.57595 2.11513,5 0,4.69048 -0.15757,5 -2.54545,5 -3.34633,0 -7.02535,3.79141 -8.3667,8.62228 -0.59218,2.13275 -1.0792,10.74022 -1.08227,19.12772 l -0.006,15.25 h -5 -5 z"
         id="path147" />
      <path
         id="path174"
         style="fill:#232736;fill-opacity:1"
         d="m 761.28935,114.14836 c -10.96379,-0.0259 -14.76695,1.89078 -17.44922,7.80078 -3.51706,7.74929 -2.03263,17.00864 3.68359,22.97657 l 2.56836,2.68164 -2.25586,3.65039 c -2.06535,3.34179 -2.14434,3.98235 -0.95313,7.59179 1.28659,3.89841 1.26062,3.97892 -2.2871,7.22852 -6.80756,6.23546 -5.98659,16.29018 1.61132,19.74023 8.3261,3.78073 23.59987,1.70531 29.00977,-3.9414 4.97421,-5.19197 5.40805,-15.30976 0.83398,-19.44922 -2.60435,-2.35692 -9.81112,-4.68555 -14.50195,-4.68555 -4.31782,0 -7.70312,-2.17763 -7.70312,-4.95508 0,-2.64761 2.13008,-4.04492 6.16601,-4.04492 5.52256,0 10.2845,-2.67713 12.83594,-7.2168 2.14907,-3.82373 2.3827,-8.99103 0.82422,-18.21484 -0.23083,-1.36612 0.40493,-2.11023 2.17383,-2.54492 1.89643,-0.46603 2.5,-1.26374 2.5,-3.3086 v -2.69726 l -11.90235,-0.48828 c -1.87608,-0.077 -3.58805,-0.11935 -5.15429,-0.12305 z m -2.60938,5.59375 c 7.45555,0 10.67261,14.58522 4.56445,20.69336 -2.95105,2.95107 -5.573,2.91933 -9.09179,-0.10742 -2.55294,-2.19595 -2.80664,-3.01407 -2.80664,-9.08594 0,-6.07184 0.2537,-6.88999 2.80664,-9.08594 1.54315,-1.32736 3.58039,-2.41406 4.52734,-2.41406 z m 0.9668,46 c 4.5847,0 5.77446,0.42095 8.27734,2.92383 1.60769,1.60769 2.92188,3.7971 2.92188,4.86523 0,3.09784 -3.77455,7.05334 -7.79493,8.16993 -4.60966,1.28025 -5.01079,1.26435 -8.72851,-0.35547 -3.67151,-1.59967 -5.64037,-5.53443 -4.82031,-9.63477 0.84482,-4.22413 3.81179,-5.96875 10.14453,-5.96875 z" />
      <path
         style="fill:none"
         d="M 95.175949,249.75 C 67.539989,219.36097 35.395414,179.27125 37.21,177.45667 c 0.30813,-0.30813 9.613574,1.06345 20.678765,3.04795 l 20.118529,3.60819 8.351935,-6.06808 c 4.593564,-3.33745 9.161668,-6.96283 10.151341,-8.05641 2.546253,-2.81358 4.31797,-2.54224 3.723,0.57018 -0.628203,3.28622 1.63383,17.52838 3.06156,19.27615 1.20465,1.47467 9.24242,0.77001 11.3923,-0.99875 0.65308,-0.53731 1.49869,-4.5452 1.87912,-8.90641 0.38044,-4.36122 0.81386,-7.92949 0.96316,-7.92949 0.1493,0 4.97703,2.7 10.72828,6 5.75125,3.3 11.30848,5.99968 12.34941,5.99929 1.04093,-3.8e-4 9.9926,-1.572 19.8926,-3.49248 19.73064,-3.8275 20.5,-3.92479 20.5,-2.59236 0,1.37047 -19.29838,26.74717 -31.91997,41.97366 -15.84553,19.11579 -38.37241,44.10492 -39.76254,44.10868 -0.65038,0.002 -7.01407,-6.40929 -14.141541,-14.24679 z M 73.639357,208.50256 c -1.444353,-3.76392 -7.777192,-12.53541 -8.657511,-11.99134 -1.699058,1.05008 -1.099696,2.65095 3.050549,8.14791 3.802916,5.03693 6.872333,7.14094 5.606962,3.84343 z m 76.216413,-4.03513 c 2.78106,-3.04292 4.84106,-6.08042 4.57779,-6.75 -1.04092,-2.64743 -32.21849,-21.35935 -33.43373,-20.06602 -0.43855,0.46673 -1.10481,3.59833 -1.48059,6.95912 l -0.68324,6.11054 12.332,9.61908 c 6.7826,5.29049 12.62435,9.62825 12.98166,9.63946 0.35731,0.0112 2.92506,-2.46927 5.70611,-5.51218 z M 80.75,205.05644 c 1.2375,-1.03236 2.25,-2.38023 2.25,-2.99525 0,-1.47964 -5.716398,-12.76788 -6.807034,-13.44193 -0.969023,-0.59889 -6.910954,3.30876 -7.578022,4.98361 -0.609249,1.52968 7.041257,13.40477 8.609641,13.36386 0.701478,-0.0183 2.287915,-0.87793 3.525415,-1.91029 z m 12.334454,-9.70396 c 3.25355,-2.55613 5.912147,-5.14363 5.907992,-5.75 -0.02219,-3.23774 -2.23768,-14.23284 -3.028662,-15.0307 -0.886944,-0.89465 -13.63894,7.12695 -16.161313,10.16623 -0.876627,1.05627 -0.367806,2.95918 2.223582,8.31584 1.848181,3.82038 3.761398,6.94615 4.251593,6.94615 0.490194,0 3.553258,-2.09138 6.806808,-4.64752 z M 747.35993,185.07615 c -7.59792,-3.45008 -8.41843,-13.50494 -1.61087,-19.74042 3.54774,-3.2496 3.57306,-3.32965 2.28647,-7.22806 -1.19123,-3.60946 -1.11068,-4.25001 0.95468,-7.59183 l 2.25567,-3.64976 -2.56989,-2.68304 c -5.71625,-5.96792 -7.20066,-15.22687 -3.6836,-22.97619 3.06547,-6.7543 7.59651,-8.29309 22.60516,-7.67694 L 779.5,114.01854 v 2.69565 c 0,2.04486 -0.60355,2.84396 -2.5,3.30999 -1.76891,0.43469 -2.4046,1.17897 -2.17378,2.54508 1.55848,9.22384 1.32464,14.39001 -0.82442,18.21375 C 771.45036,145.32268 766.68864,148 761.16607,148 757.13012,148 755,149.39738 755,152.04501 c 0,2.77746 3.38519,4.95499 7.70301,4.95499 4.69084,0 11.8972,2.32822 14.50156,4.68513 4.57407,4.13948 4.14017,14.25805 -0.83405,19.45002 -5.40991,5.64672 -20.68448,7.72173 -29.01059,3.941 z m 16.84458,-4.11617 c 4.02038,-1.1166 7.79549,-5.07392 7.79549,-8.17176 0,-1.06814 -1.31538,-3.25745 -2.92308,-4.86514 C 766.57405,165.4202 765.38414,165 760.79943,165 c -6.33274,0 -9.29851,1.74541 -10.14334,5.96956 -0.82007,4.10033 1.14817,8.03483 4.81967,9.6345 3.71773,1.61981 4.11909,1.63618 8.72875,0.35592 z m 0.19346,-41.26704 C 770.50613,133.58478 767.28883,119 759.83326,119 c -0.94695,0 -2.98433,1.08604 -4.5275,2.41342 -2.55294,2.19594 -2.80576,3.01472 -2.80576,9.08658 0,6.07186 0.25282,6.89064 2.80576,9.08658 3.51881,3.02676 6.14114,3.05743 9.09221,0.10636 z M 110.75,169.33772 c 0.6875,-0.27741 1.8125,-0.27741 2.5,0 0.6875,0.27741 0.125,0.50439 -1.25,0.50439 -1.375,0 -1.9375,-0.22698 -1.25,-0.50439 z m -7,-1 c 0.6875,-0.27741 1.8125,-0.27741 2.5,0 0.6875,0.27741 0.125,0.50439 -1.25,0.50439 -1.375,0 -1.9375,-0.22698 -1.25,-0.50439 z m 16.51903,-0.0307 c 0.97297,-0.25354 2.32297,-0.23687 3,0.0371 0.67703,0.27393 -0.11903,0.48137 -1.76903,0.46099 -1.65,-0.0204 -2.20394,-0.2445 -1.23097,-0.49804 z M 127.5,167 c 1.65,-0.41985 4.35,-0.76486 6,-0.76669 2.52234,-0.003 2.36313,0.12842 -1,0.82406 -5.06556,1.04778 -9.15859,1.00081 -5,-0.0574 z m 172.82262,0.30378 c -3.24856,-0.63237 -4.48788,-2.72448 -4.13715,-6.98399 0.29444,-3.57581 0.50615,-3.80329 3.31453,-3.56149 4.35414,0.37489 7.166,-0.49421 8.08733,-2.49967 0.44436,-0.96725 1.0565,-14.80863 1.3603,-30.75863 L 309.5,94.5 h 6 6 V 126 c 0,29.86178 -0.10578,31.68202 -2.03402,35 -3.34597,5.75752 -10.25765,8.03349 -19.14336,6.30378 z m 33,0 c -3.32324,-0.6469 -4.47537,-2.73165 -4.13373,-7.47988 0.23484,-3.26389 0.67884,-4.22602 1.81111,-3.92463 5.00218,1.33147 6.64186,1.15404 8.52251,-0.92219 1.84846,-2.0407 2.01012,-4.08501 2.47749,-31.33012 L 342.5,94.5 h 6 6 V 126 c 0,29.86178 -0.10578,31.68202 -2.03402,35 -3.34597,5.75752 -10.25765,8.03349 -19.14336,6.30378 z M 82.5,165.41213 l -7,-1.31761 6.5,0.51657 c 3.575,0.28411 8.075,0.89178 10,1.35038 3.394741,0.80873 3.409778,0.83282 0.5,0.80104 -1.65,-0.018 -6.15,-0.62569 -10,-1.35038 z m 168.95538,0.33218 c -0.26502,-0.69063 -0.3634,-17.00313 -0.21862,-36.25 L 251.5,94.5 l 10,-0.320426 c 12.01913,-0.385124 19.44028,1.057847 23.64756,4.598044 7.65188,6.438632 7.95266,18.343952 0.65462,25.910812 l -3.07516,3.18842 3.53721,3.33602 c 4.39159,4.1418 6.17839,10.16329 5.35973,18.06221 -0.93538,9.02519 -3.7454,13.20641 -10.87844,16.18678 -4.78726,2.00025 -28.54306,2.22933 -29.29014,0.28245 z m 25.22219,-12.14339 c 2.49443,-2.14562 2.7891,-3.05431 2.7891,-8.60092 0,-5.57695 -0.2869,-6.44862 -2.84738,-8.65105 -2.29887,-1.9774 -3.74045,-2.3914 -7.48334,-2.14908 L 264.5,134.5 l -0.28984,9.42498 c -0.15941,5.18374 -0.061,10.02124 0.21861,10.75 0.91064,2.37309 9.07337,1.65733 12.2488,-1.07406 z m -1.34961,-31.64425 c 3.44809,-2.71227 4.45047,-8.10107 2.3329,-12.54166 -1.73544,-3.63926 -4.31862,-4.75968 -9.77249,-4.23869 L 264.5,105.5 l -0.29497,7.91161 c -0.16224,4.35138 -0.0639,8.51388 0.21861,9.25 0.81166,2.11515 7.90188,1.65678 10.90432,-0.70494 z m 92.14762,43.84029 c -0.27613,-0.71958 -0.3836,-17.05578 -0.23882,-36.30265 L 367.5,94.5 l 5.7049,-0.298558 5.70491,-0.298559 1.90694,3.798559 c 1.04882,2.089207 5.17618,11.344768 9.1719,20.567908 3.99573,9.22315 7.6579,17.0122 8.13815,17.30902 0.48618,0.30047 0.87999,-8.24008 0.88851,-19.26935 0.008,-10.89496 0.38946,-20.398993 0.84675,-21.12007 0.55034,-0.867804 2.48915,-1.205889 5.73469,-1 L 410.5,94.5 v 36 36 h -5.40163 -5.40163 l -3.33469,-7.8145 C 386.73114,136.11646 380.68306,123 379.90725,123 c -0.47754,0 -0.98952,9.7875 -1.13775,21.75 l -0.2695,21.75 -5.26118,0.30265 c -3.64027,0.2094 -5.41586,-0.10044 -5.76324,-1.00569 z M 431.5,165.59749 c -3.9133,-1.72738 -5.92398,-4.07368 -8.68444,-10.13403 -1.85739,-4.07772 -2.26572,-6.74798 -2.2882,-14.96346 -0.0343,-12.54009 1.9544,-18.89564 7.47258,-23.88098 5.86288,-5.29676 15.17878,-6.11591 20.90799,-1.83844 4.72306,3.52627 6.59207,8.83369 6.59207,18.71942 v 9 l -11.5,0.5 -11.5,0.5 0.31549,2.9263 c 0.87581,8.1236 7.13973,12.67179 14.59563,10.59778 7.07898,-1.96917 7.12663,-1.95165 6.73573,2.47592 -0.63177,7.15574 -1.14327,7.50482 -10.93203,7.46086 -4.96804,-0.0223 -10.00462,-0.60847 -11.71482,-1.36337 z m 12.95691,-36.35487 c -0.0541,-6.60088 -2.073,-9.1154 -6.16364,-7.6768 -1.92423,0.67672 -3.3095,2.34155 -4.66024,5.60075 -2.78823,6.72771 -1.93698,8.00065 5.10487,7.63369 L 444.5,134.5 Z M 470,165.73186 c -3.41651,-1.69276 -7,-9.13752 -7,-14.54262 0,-9.97005 5.40572,-15.27852 16.43398,-16.13834 L 486.5,134.5 l 0.30697,-3.69303 c 0.22676,-2.72808 -0.25738,-4.25738 -1.85287,-5.85287 -1.91195,-1.91195 -3.03749,-2.11934 -9.80697,-1.80697 L 467.5,123.5 v -4.47047 c 0,-5.86631 2.17601,-6.99639 13.5,-7.01105 6.77867,-0.009 9.17034,0.39769 11.81018,2.00715 5.71109,3.48196 6.26197,6.32346 5.95928,30.73883 L 498.5,166.5 l -4.35221,0.31249 c -2.82131,0.20257 -4.93182,-0.21004 -6,-1.17302 -1.41975,-1.27993 -1.99378,-1.29348 -4.14779,-0.0979 -3.11914,1.73123 -10.68244,1.83405 -14,0.19032 z m 15.17126,-9.38685 C 486.53748,155.1086 487,153.24121 487,148.96159 c 0,-5.38273 -0.15774,-5.75859 -2.6138,-6.22809 -4.10733,-0.78517 -7.76817,0.65277 -9.20783,3.61675 -1.49904,3.08621 -0.80285,7.88241 1.47477,10.16004 1.97575,1.97575 6.24382,1.89293 8.51812,-0.16528 z m 24.45411,9.12111 c -0.80463,-2.09684 -0.8215,-48.79143 -0.0184,-50.88433 0.42752,-1.11411 1.92122,-1.58179 5.05202,-1.58179 4.06555,0 4.53669,0.26295 5.51877,3.08014 l 1.07375,3.08015 3.6664,-3.58015 C 530.78038,109.85561 535,110.86839 535,118 c 0,4.30219 -0.9825,6 -3.47213,6 -3.31351,0 -7.20903,3.50389 -8.60791,7.74251 -0.67365,2.04118 -1.49372,10.69664 -1.82239,19.23436 L 520.5,166.5 l -5.12463,0.29791 c -3.99907,0.23248 -5.26198,-0.06 -5.75,-1.33179 z m 33.85021,0.33084 c -0.27613,-0.71958 -0.3836,-17.05578 -0.23882,-36.30265 L 543.5,94.5 h 6.37583 6.37584 l 6.73192,19.45259 c 3.70256,10.69892 7.15099,19.59227 7.66317,19.763 0.51219,0.17073 3.79874,-8.13294 7.30344,-18.45259 3.50471,-10.31965 6.82161,-19.34581 7.3709,-20.058133 0.66102,-0.857219 2.88884,-1.195341 6.5888,-1 L 597.5,94.5 v 36 36 h -5.5 -5.5 l -0.27159,-19.25 C 586.07903,136.6625 585.55374,128 585.06109,128 c -0.49265,0 -2.56818,5.0625 -4.61227,11.25 -2.0441,6.1875 -4.17939,11.83417 -4.74509,12.54816 -0.64561,0.81483 -2.72454,1.18715 -5.58381,1 -5.3309,-0.34893 -5.53802,-0.64313 -10.24165,-14.54816 -1.72094,-5.0875 -3.51265,-9.25 -3.98156,-9.25 -0.46892,0 -0.97501,8.4375 -1.12464,18.75 L 554.5,166.5 l -5.26118,0.30265 c -3.64027,0.2094 -5.41586,-0.10044 -5.76324,-1.00569 z m 74.90354,-0.23354 c -7.53668,-3.28017 -11.95791,-14.61969 -11.11524,-28.50825 0.32233,-5.31263 1.26965,-10.27357 2.49941,-13.08903 6.14637,-14.07172 23.45104,-16.24603 30.73331,-3.86161 1.6162,2.74855 1.99725,5.20544 2,12.89547 l 0.003,9.5 -11.5,0.5 -11.5,0.5 0.31549,2.9263 c 0.52112,4.83367 3.08943,8.63603 6.91205,10.23322 3.58626,1.49843 4.38878,1.42331 13.10444,-1.22663 2.2814,-0.69365 2.31662,-0.60301 1.62385,4.17904 -0.38946,2.68844 -1.15645,5.45057 -1.70442,6.13807 -1.37671,1.72728 -17.29418,1.58833 -21.37229,-0.18658 z m 13.43237,-35.3951 c 0.56461,-7.85173 -4.34077,-11.7367 -8.78974,-6.96129 -2.28094,2.44831 -4.46442,9.2677 -3.47827,10.86331 0.34905,0.56479 3.1726,0.89086 6.29475,0.72693 L 631.5,134.5 Z M 137.75,165.33772 c 0.6875,-0.27741 1.8125,-0.27741 2.5,0 0.6875,0.27741 0.125,0.50439 -1.25,0.50439 -1.375,0 -1.9375,-0.22698 -1.25,-0.50439 z m 514.28518,-1.27198 C 651.46583,163.0019 651,160.72232 651,159 c 0,-4.72861 1.62242,-7 5,-7 3.37758,0 5,2.27139 5,7 0,4.72861 -1.62242,7 -5,7 -1.87299,0 -3.303,-0.69764 -3.96482,-1.93426 z m 26.38326,0.96541 c -3.45376,-1.39719 -7.30549,-6.83479 -9.02064,-12.73471 -2.44442,-8.40853 -1.63588,-23.21204 1.62768,-29.80071 6.20002,-12.51701 23.59212,-12.53003 29.94748,-0.0224 2.30355,4.53347 2.52704,6.08114 2.52704,17.5 0,11.08389 -0.26732,13.06944 -2.32095,17.23898 -3.14258,6.38046 -7.25578,8.80559 -14.79708,8.72432 -3.23509,-0.0349 -6.81867,-0.44232 -7.96353,-0.90546 z m 13.22346,-9.81655 c 3.88971,-5.79166 4.3375,-21.54147 0.84976,-29.8888 -2.54498,-6.09099 -9.69462,-6.35617 -12.55123,-0.46553 -0.70406,1.45185 -1.48061,7.27633 -1.72567,12.94329 -0.47653,11.01956 1.14511,18.11042 4.61629,20.18546 2.98352,1.78351 6.4916,0.67886 8.81085,-2.77442 z M 714,139.9425 V 113.885 l 4.25,0.3075 c 3.80293,0.27515 4.28329,0.59678 4.56642,3.0575 0.42088,3.65778 1.88509,3.46671 5.74745,-0.75 1.76323,-1.925 4.15768,-3.5 5.321,-3.5 1.87149,0 2.11513,0.57595 2.11513,5 0,4.69048 -0.15758,5 -2.54545,5 -3.34634,0 -7.02536,3.7914 -8.3667,8.62227 -0.59218,2.13275 -1.07921,10.74023 -1.08227,19.12773 L 724,166 h -5 -5 z m -570.73097,24.36451 c 0.97297,-0.25354 2.32297,-0.23687 3,0.0371 0.67703,0.27393 -0.11903,0.48137 -1.76903,0.46099 -1.65,-0.0204 -2.20394,-0.2445 -1.23097,-0.49804 z M 72.8125,163.31689 c 0.721875,-0.28887 1.584375,-0.25335 1.916667,0.0789 0.332291,0.33229 -0.258334,0.56864 -1.3125,0.52522 -1.164943,-0.048 -1.4019,-0.28494 -0.604167,-0.60416 z M 166.5,159.94904 c 10.45,-2.11607 20.24864,-3.87026 21.77475,-3.89822 2.97628,-0.0545 5.20922,-3.62603 4.09021,-6.54214 -0.35752,-0.93169 -0.005,-1.50868 0.92106,-1.50868 0.825,0 1.77315,-0.7118 2.10699,-1.58179 0.84793,-2.20965 0.76145,-2.63171 -0.39301,-1.91821 -1.88392,1.16432 -3.00904,-0.51204 -1.72952,-2.57687 1.59125,-2.56791 -0.56542,-4.17263 -4.49801,-3.34684 -4.33293,0.90986 -7.04471,-0.37184 -6.52614,-3.08454 0.3921,-2.05116 0.002,-2.35333 -3.46189,-2.6837 -3.34521,-0.31901 -3.83707,-0.1173 -3.43771,1.40984 0.62599,2.3938 -1.96066,2.3149 -6.06044,-0.18486 -1.86939,-1.13983 -3.46273,-1.55657 -3.80901,-0.99626 -1.17594,1.90271 -3.35232,0.90149 -5.4626,-2.51302 -1.18164,-1.91194 -2.00585,-4.34885 -1.83156,-5.41535 0.17428,-1.06651 -0.77406,-3.1022 -2.10743,-4.52375 -1.72271,-1.83664 -2.01211,-2.61803 -1,-2.7 0.78337,-0.0634 2.09931,-0.17594 2.92431,-0.25 2.06443,-0.18532 2.44062,-4.02408 0.54826,-5.5946 -0.85154,-0.70672 -1.56976,-2.69234 -1.59604,-4.41249 -0.0539,-3.53128 -5.12664,13.326 -5.15049,17.11582 -0.008,1.23386 -0.44965,1.97422 -0.98196,1.64523 -0.5323,-0.32898 -1.97082,0.34412 -3.19671,1.49578 -1.81577,1.70583 -1.52361,0.65951 1.57629,-5.64523 9.12304,-18.55493 5.66665,-38.47799 -9.12276,-52.584699 -15.9526,-15.216198 -38.33201,-17.220743 -56.63375,-5.072737 -16.726955,11.102719 -23.8079,32.976779 -17.029938,52.607926 2.255011,6.53124 2.313596,7.04391 0.549693,4.81035 -1.085876,-1.375 -2.475104,-4.4125 -3.087173,-6.75 -0.612068,-2.3375 -1.535988,-4.25 -2.053154,-4.25 -0.517166,0 -0.662187,0.45 -0.322268,1 0.374385,0.60577 -1.030431,1 -3.563428,1 -3.547567,0 -3.998252,0.22075 -2.972927,1.4562 0.664694,0.8009 0.888441,1.97411 0.497215,2.60713 -0.488142,0.78983 -0.07093,0.94769 1.329754,0.50313 1.12259,-0.3563 2.342683,-0.1598 2.711319,0.43667 0.902737,1.46066 -1.055832,3.66521 -3.782472,4.25753 -1.220704,0.26518 -2.976544,0.80149 -3.901868,1.19179 -1.240112,0.52309 -2.101268,-0.10034 -3.27568,-2.3714 -1.936772,-3.7453 -4.02259,-4.13236 -3.131269,-0.58105 0.36183,1.44165 0.196053,2.5 -0.391592,2.5 -0.560479,0 -1.865625,0.7875 -2.900326,1.75 -2.74143,2.55013 -6.427199,5.25 -7.167129,5.25 -0.352892,0 -1.456111,-0.9 -2.451597,-2 -2.374243,-2.62351 -4.84455,-2.66094 -4.01933,-0.0609 1.083869,3.41497 -7.373179,5.76839 -10.28067,2.8609 -2.0287,-2.0287 -1.4636,0.58355 2.3,10.63204 3.644704,9.73105 4.128412,11.61313 2.574682,10.01796 C 21.304734,149.63284 16.135327,135.26611 14.42392,127.40795 11.821615,115.45911 11.998514,94.988584 14.80164,83.698651 19.202161,65.975009 27.863034,51.237186 41.738756,37.860952 66.72333,13.775753 100.66054,5.5635534 135.89503,15.07681 c 31.17809,8.418033 55.72222,32.335993 65.56978,63.896975 4.74415,15.204794 5.003,37.343845 0.63405,54.229455 -1.79733,6.94652 -8.39813,22.24565 -10.03411,23.25674 -0.84866,0.5245 -42.03685,7.57194 -43.47214,7.43824 -0.60094,-0.056 7.45739,-1.83311 17.90739,-3.94918 z M 23.541119,127.93347 c 1.07627,-1.74144 -0.149522,-2.11024 -1.521063,-0.45764 C 21.231307,128.42622 21.155445,129 21.818538,129 c 0.584886,0 1.360047,-0.47994 1.722581,-1.06653 z M 41.15,120.5 c 0,-0.5225 -0.48375,-1.11125 -1.075,-1.30833 C 39.48375,118.99458 39,119.58333 39,120.5 c 0,0.91667 0.48375,1.50542 1.075,1.30833 0.59125,-0.19708 1.075,-0.78583 1.075,-1.30833 z m 20.660916,-18.25 -0.189085,-6.75 -0.360819,5.75 c -0.225503,3.5936 -0.810886,5.75574 -1.560916,5.76531 -0.733783,0.009 -0.617252,0.39198 0.299904,0.98469 0.825,0.53316 1.6125,0.97627 1.75,0.98469 0.1375,0.008 0.164912,-3.02219 0.06092,-6.73469 z m 94.851364,-3.5 c -0.27741,-0.6875 -0.50439,-0.125 -0.50439,1.25 0,1.375 0.22698,1.9375 0.50439,1.25 0.27741,-0.6875 0.27741,-1.8125 0,-2.5 z M 42,159.23548 c -5.225,-0.8497 -8.950541,-1.73344 -8.278981,-1.96387 1.299841,-0.446 21.418852,2.53493 22.168523,3.2846 0.744055,0.74405 -3.919521,0.3006 -13.889542,-1.32073 z m -16.370837,-3.02649 c -0.268879,-0.43506 1.054563,-0.61082 2.940983,-0.39059 1.88642,0.22022 3.429854,0.57618 3.429854,0.79101 0,0.75258 -5.88692,0.38257 -6.370837,-0.40042 z M 107.25,147.28375 c 1.5125,-0.22913 3.9875,-0.22913 5.5,0 1.5125,0.22912 0.275,0.41659 -2.75,0.41659 -3.025,0 -4.2625,-0.18747 -2.75,-0.41659 z m 8.83333,-0.64011 c 0.22917,-0.196 1.99167,-0.64537 3.91667,-0.9986 2.46242,-0.45185 3.05532,-0.35075 2,0.34104 -1.35564,0.88866 -6.90843,1.50578 -5.91667,0.65756 z"
         id="path9" />
      <path
         id="path50"
         style="fill:#232736"
         d="m 627.49532,112.10931 c -7.29591,-0.25939 -13.10975,3.61793 -16.99609,11.39062 -2.76214,5.52429 -2.99879,6.83251 -2.99805,16.5 7e-4,9.23943 0.31488,11.17049 2.6211,16.08985 2.38069,5.07821 5.8769,8.6864 9.87695,10.18945 2.41598,0.90782 17.3742,0.77156 18.86328,-0.17188 1.57458,-0.9976 3.34964,-9.2317 2.23828,-10.38086 -0.41114,-0.42511 -2.49324,-0.0439 -4.62695,0.84766 -4.77094,1.99342 -9.88981,1.32423 -13.12891,-1.71875 -2.59175,-2.43482 -4.9879,-9.61366 -3.65429,-10.94726 0.4601,-0.46011 5.77985,-0.96368 11.82226,-1.1211 l 10.98633,-0.28711 0.30664,-7 c 0.16803,-3.84999 -0.23966,-8.95416 -0.90625,-11.34375 -1.60033,-5.73678 -6.44125,-10.79124 -11.1875,-11.68164 -1.10148,-0.20664 -2.17452,-0.32818 -3.2168,-0.36523 z m -0.48828,8.97656 c 2.81789,-0.034 5.16424,3.09498 4.79102,8.83398 l -0.29883,4.58008 -5.76172,0.30078 c -7.04184,0.36696 -7.89174,-0.90706 -5.10352,-7.63476 1.70531,-4.11472 4.18136,-6.05366 6.37305,-6.08008 z" />
      <path
         style="fill:#232736"
         d="m 543.47558,165.79696 c -0.27613,-0.71958 -0.3836,-17.05578 -0.23882,-36.30265 L 543.5,94.5 l 5.71109,-0.298743 c 4.84417,-0.253395 5.90345,0.0093 6.97837,1.730507 0.69701,1.116088 3.97702,9.998726 7.28891,19.739196 3.3119,9.74046 6.53924,17.87177 7.17188,18.06957 0.70173,0.2194 3.38727,-6.38636 6.88706,-16.94045 7.9607,-24.00656 7.302,-22.96294 14.26339,-22.598471 L 597.5,94.5 v 36 36 h -5.5 -5.5 l -0.27114,-19.75 c -0.14913,-10.8625 -0.6647,-19.75 -1.14573,-19.75 -0.48102,0 -2.834,5.7375 -5.22886,12.75 L 575.5,152.5 l -4.58759,0.29816 c -2.88547,0.18753 -4.9692,-0.18349 -5.61614,-1 -0.5657,-0.71399 -2.70099,-6.36066 -4.74509,-12.54816 -2.04409,-6.1875 -4.11962,-11.25 -4.61227,-11.25 -0.49265,0 -1.01794,8.6625 -1.16732,19.25 L 554.5,166.5 l -5.26118,0.30265 c -3.64027,0.2094 -5.41586,-0.10044 -5.76324,-1.00569 z"
         id="path24" />
      <path
         style="fill:#232736"
         d="M 510.71277,166.37943 C 510.32075,165.98741 510,153.79201 510,139.27854 v -26.38812 l 4.74101,0.30479 c 3.82549,0.24593 4.80976,0.691 5.09706,2.30479 0.64635,3.63058 1.82051,3.64142 5.41193,0.05 2.24615,-2.24615 4.50493,-3.55 6.15,-3.55 2.51111,0 2.6,0.20513 2.6,6 0,5.91132 -0.0416,6 -2.81291,6 -2.92302,0 -7.20793,3.71067 -8.66065,7.5 -0.42171,1.1 -1.05017,9.425 -1.39659,18.5 l -0.62985,16.5 -4.53723,0.2961 c -2.49548,0.16286 -4.85798,-0.0246 -5.25,-0.41667 z"
         id="path23" />
      <path
         id="path49"
         style="fill:#232736"
         d="m 482.83321,112.08978 c -1.21567,-0.002 -2.53851,0.0347 -3.97851,0.10351 -9.60338,0.45915 -11.85547,1.56949 -11.85547,5.84766 0,5.54633 0.44735,5.80728 8.91992,5.22656 7.33591,-0.50282 7.87649,-0.39802 9.43164,1.82227 0.90729,1.29532 1.64844,4.05518 1.64844,6.13281 v 3.77734 l -5.75,0.0215 c -8.34873,0.0319 -13.80495,2.78234 -16.26172,8.19531 -3.63032,7.99862 -1.56407,18.24132 4.41406,21.88672 3.79053,2.31142 10.60538,2.46237 14.73633,0.32617 2.78036,-1.43783 3.13953,-1.43356 4.23633,0.0664 0.87309,1.19402 2.41029,1.55388 5.66211,1.32226 l 4.46289,-0.31836 0.27148,-21.31054 c 0.24598,-19.40939 0.0933,-21.70892 -1.70898,-25.78321 -2.40046,-5.42664 -5.71879,-7.30159 -14.22852,-7.3164 z m -0.14257,30.07812 c 0.80018,-0.003 1.57809,0.0992 2.2871,0.32422 1.72691,0.5481 2.02149,1.49928 2.02149,6.50391 0,3.995 -0.49921,6.36055 -1.57031,7.43164 -1.95425,1.95424 -7.78384,2.05579 -9.35547,0.16211 -2.08037,-2.5067 -2.46949,-8.33626 -0.73438,-10.98438 1.34772,-2.05687 4.49377,-3.42658 7.35157,-3.4375 z" />
      <path
         id="path48"
         style="fill:#232736"
         d="m 440.02853,112.16009 c -4.46453,0.0916 -10.16099,2.28791 -12.82813,5.12695 -10.90377,11.60653 -8.43828,41.91429 3.9043,47.99414 2.3197,1.14267 5.98789,1.67982 11.57422,1.69531 9.7355,0.0271 11.32031,-1.0097 11.32031,-7.41015 v -4.29297 l -4.48438,1.47852 c -5.45932,1.79727 -10.44951,1.03576 -13.23242,-2.01758 -2.51826,-2.76299 -4.81655,-9.60142 -3.62695,-10.79102 0.47944,-0.47944 5.81501,-0.99883 11.85742,-1.15625 l 10.98633,-0.28711 -0.0488,-9 c -0.0733,-13.53233 -4.20388,-19.98612 -13.59766,-21.24609 -0.57506,-0.0771 -1.18643,-0.10684 -1.82421,-0.0937 z m -0.41993,8.76367 c 2.98104,-0.0282 5.60924,3.59658 5.20313,9.24414 l -0.3125,4.33203 -5.66016,0.29688 c -3.27196,0.1718 -5.94146,-0.15411 -6.32422,-0.77344 -0.93931,-1.51982 0.21689,-6.05376 2.50391,-9.81445 1.37057,-2.25372 3.02835,-3.2704 4.58984,-3.28516 z" />
      <path
         style="fill:#232736;fill-opacity:1"
         d="m 367.62537,165.46612 c -0.94242,-2.45592 -0.72107,-68.766939 0.23459,-70.273767 0.55774,-0.879416 2.57242,-1.206899 6.15203,-1 L 379.3347,94.5 l 9.08265,20.38669 c 4.99546,11.21268 9.53265,20.32639 10.08265,20.25268 0.61049,-0.0818 1.19476,-8.02266 1.5,-20.38669 L 400.5,94.5 h 5 5 v 36 36 l -4.58759,0.29816 c -3.07831,0.20006 -4.98144,-0.17641 -5.78475,-1.14434 -0.65844,-0.79337 -5.16947,-10.58185 -10.02452,-21.75219 -4.85505,-11.17034 -9.33054,-20.47743 -9.94553,-20.68243 -0.79609,-0.26536 -1.19587,5.91443 -1.38789,21.45404 L 378.5,166.5 l -5.12463,0.29791 c -3.99907,0.23248 -5.26198,-0.06 -5.75,-1.33179 z"
         id="path18" />
      <path
         style="fill:#232736"
         d="m 334,167.268 c -3.95373,-0.72691 -5,-2.19205 -5,-7.00174 v -4.48884 l 3.54371,0.6648 c 4.28951,0.80472 6.9885,0.0621 8.10621,-2.23029 0.45907,-0.94156 1.06314,-14.76193 1.34238,-30.71193 l 0.5077,-29 h 6 6 V 126 c 0,29.86178 -0.10578,31.68202 -2.03402,35 -3.35042,5.76517 -9.62207,7.89399 -18.46598,6.268 z"
         id="path14" />
      <path
         style="fill:#232736"
         d="M 300.24781,167.29398 C 297.4639,166.75794 296.30706,164.55577 296.41617,160 l 0.0838,-3.5 4.67468,0.325 c 7.22707,0.50246 7.24328,0.43344 7.82532,-33.325 l 0.5,-29 h 6 6 v 31 c 0,29 -0.12903,31.25806 -2,35 -3.11722,6.23445 -9.83892,8.60649 -19.25219,6.79398 z"
         id="path13" />
      <path
         id="path47"
         style="fill:#232736"
         d="m 264.45235,94.162042 c -0.98175,0.0028 -1.99668,0.0203 -3.04492,0.05078 l -9.9082,0.287109 -0.26172,34.994139 c -0.14478,19.24683 -0.0463,35.55937 0.21875,36.25 0.61951,1.61443 22.30055,1.72775 27.99609,0.14649 5.79113,-1.60781 10.05059,-6.34936 11.41407,-12.70703 2.19289,-10.22517 0.76641,-16.91877 -4.66797,-21.89649 l -3.58985,-3.28711 3.13477,-3.25 c 5.28818,-5.48246 6.77849,-13.17114 3.89258,-20.07812 -3.10622,-7.434239 -10.45727,-10.551121 -25.1836,-10.509768 z m 5.75586,10.996098 c 5.4414,-0.0639 7.86159,2.28145 8.51563,8.08398 0.47402,4.20548 0.22735,4.96211 -2.52149,7.71094 -2.51633,2.51634 -3.85222,3.04687 -7.66211,3.04687 h -4.61523 l 0.28711,-9.25 0.28711,-9.25 4.58008,-0.29687 c 0.38999,-0.0254 0.76614,-0.0407 1.1289,-0.0449 z m -6.20898,28.84179 h 4.94531 c 3.78483,0 5.60217,0.56658 7.75,2.41406 2.49502,2.14613 2.80469,3.07713 2.80469,8.41797 0,4.98012 -0.41362,6.44812 -2.42383,8.58789 -2.01755,2.14757 -3.3179,2.58008 -7.75,2.58008 h -5.32617 v -11 z" />
      <path
         style="fill:#232736;fill-opacity:1;stroke:#193084;stroke-opacity:1"
         d="m 117.52067,201.19388 c -28.921421,-31.44402 -64.056,-75.14982 -61.62156,-76.65439 0.46975,-0.29032 9.553485,1.04579 20.18608,2.96914 10.632595,1.92335 14.618229,2.61207 17.978464,3.34731 14.680926,3.21229 -3.334642,-0.5562 26.092206,5.00263 l 5.685,1.41529 c 1.1498,0.28625 3.34748,-0.85761 33.21196,-6.36372 1.25326,-0.23106 10.62148,-1.61175 20.77132,-3.58167 10.14983,-1.96992 18.69838,-3.33755 18.99676,-3.03917 1.10438,1.10439 -22.44292,31.88457 -40.63824,53.12084 -13.16543,15.36574 -29.3255,32.96787 -30.55695,33.28374 -0.60841,0.15605 -5.15567,-4.11895 -10.10504,-9.5 z"
         id="path8" />
      <path
         style="fill:#ffffff;stroke:#606060;stroke-opacity:1"
         d="m 115.89035,134.52158 c -0.62373,-2.51819 -0.68195,-16.73497 -0.95636,-17.65515 -0.20638,-0.69203 -9.93275,8.15116 -11.90557,9.57814 l -24.762365,17.91109 c 1.659112,3.22679 7.117324,10.34834 9.825624,13.97138 1.79344,2.39919 16.160451,-10.77449 19.701591,-13.39257 1.61795,-1.1962 8.24272,-9.82488 8.09708,-10.41289 z"
         id="path12" />
      <path
         style="fill:#ffffff;stroke:#606060;stroke-opacity:1"
         d="m 132.5405,135.43068 c 0.62372,-2.51819 0.68848,-17.40841 0.9629,-18.32859 0.20638,-0.69203 10.2226,8.0095 12.19542,9.43648 l 24.76237,17.91109 c -1.65911,3.22679 -7.11732,10.34834 -9.82562,13.97138 -1.79344,2.39919 -16.16046,-10.77449 -19.7016,-13.39257 -1.61794,-1.1962 -8.53911,-9.00978 -8.39347,-9.59779 z"
         id="path12-2" />
      <path
         style="fill:#ffffff;stroke:#606060;stroke-width:1;stroke-opacity:1"
         d="m 132.11546,135.02441 c 0.55984,-2.766 0.85434,-16.41366 0.67704,-17.18408 -0.29778,-1.29395 -7.40315,-0.72555 -7.46311,-0.72607 l -9.73295,-0.0841 c 0.23077,3.20348 -0.0664,16.40662 1.93856,19.35177 1.45896,2.14311 1.94709,3.12233 6.34592,2.90349 2.64479,-0.13159 7.30043,0.35417 8.23454,-4.261 z"
         id="path12-7" />
      <path
         style="fill:#1a1a1a"
         d="m 105.7879,145.89082 c 1.80066,-1.48032 -9.354133,-13.9023 -10.190934,-13.43135 -0.392035,0.22064 -3.620781,2.56694 -5.59085,3.99772 l -6.007054,4.36267 c 1.659112,3.22679 7.664779,16.25985 10.369357,14.28835 3.520731,-2.56644 8.900711,-7.1467 11.419481,-9.21739 z"
         id="path12-9" />
      <path
         style="fill:#ffffff;stroke:#606060;stroke-opacity:1"
         d="m 199.01064,123.48238 c 2.5477,-0.48942 10.84309,-19.31741 10.20572,-19.19499 -37.79567,7.25972 -43.57157,7.72959 -49.58477,8.72047 l -24.54771,4.04507 c 7.31396,6.51082 12.0759,10.17182 16.52037,13.28581 2.16669,1.51808 3.03788,1.38038 19.62893,-1.52596 16.38621,-2.87045 18.44638,-3.53786 27.77746,-5.3304 z"
         id="path12-2-2-79" />
      <path
         style="fill:#ffffff;fill-opacity:1;stroke:#606060;stroke-opacity:1"
         d="m 55.419368,124.07519 c -2.5477,-0.48942 -16.286965,-20.26793 -15.649595,-20.14551 37.79567,7.25972 43.57157,7.72959 49.58477,8.72047 l 24.547707,4.04507 c -7.31396,6.51082 -12.0759,10.17182 -16.520367,13.28581 -2.16669,1.51808 -3.03788,1.38038 -19.62893,-1.52596 -16.38621,-2.87045 -13.002505,-2.58734 -22.333585,-4.37988 z"
         id="path12-2-2-79-0" />
    </g>
  </g>
</svg>
